<svg id="Layer_1" data-name="Layer 1" xmlns="http://www.w3.org/2000/svg" viewBox="0 0 71 56">
  <title>cc-logo</title>
  <path d="M12.23,10.86c.07,1.18.16,2.36.27,3.52A13.77,13.77,0,0,1,22,18.44l0,19.51a13.87,13.87,0,0,1-3.08,2.32,44.35,44.35,0,0,0,7.52,12.08H52.9c7.59-8.32,13-23.58,14.15-41.5Z" fill="#963"/>
  <path d="M19.33,20.61a10.75,10.75,0,1,0,0,15.18Z" fill="#cc9" stroke="#300" stroke-miterlimit="10" stroke-width="0.5"/>
  <g>
    <path d="M17.07,15.29c-.23-.09-.46-.18-.69-.26C16.61,15.11,16.84,15.2,17.07,15.29Z" fill="#cc9"/>
    <path d="M18.3,15.83c-.22-.11-.45-.23-.68-.33C17.86,15.6,18.08,15.72,18.3,15.83Z" fill="#cc9"/>
    <path d="M19.49,16.49c-.22-.14-.44-.28-.67-.41C19,16.21,19.27,16.35,19.49,16.49Z" fill="#cc9"/>
    <path d="M8.93,1.17a121.32,121.32,0,0,0,.74,13.43,13.89,13.89,0,0,1,2.49-.22c.31,0,.61,0,.92,0l-.57,0C12.18,11,12,7.46,12,3.86H67.28c0,20.91-5.81,39.11-14.37,48.5H26.38a44.36,44.36,0,0,1-7.52-12.08l.39-.24a13.74,13.74,0,0,1-2.83,1.29A49.58,49.58,0,0,0,24.9,55.06H54.38c9.52-10.43,16-30.65,16-53.89Z" fill="#cc9"/>
    <path d="M22,18.44q-.46-.46-1-.88Q21.49,18,22,18.44Z" fill="#cc9"/>
    <path d="M19.49,39.9a13.87,13.87,0,0,0,1.15-.8A13.84,13.84,0,0,1,19.49,39.9Z" fill="#cc9"/>
    <path d="M13.72,14.46l.73.11Z" fill="#cc9"/>
    <path d="M20.64,17.29c-.23-.18-.46-.36-.7-.52C20.18,16.93,20.41,17.12,20.64,17.29Z" fill="#cc9"/>
    <path d="M15.07,14.68c.24.05.47.12.71.18C15.55,14.8,15.31,14.74,15.07,14.68Z" fill="#cc9"/>
    <path d="M20.84,38.93a13.88,13.88,0,0,0,1.09-1A13.85,13.85,0,0,1,20.84,38.93Z" fill="#cc9"/>
  </g>
  <path d="M8.93,1.17a121.3,121.3,0,0,0,.74,13.43A13.84,13.84,0,0,1,22,18.44l0,19.51a13.82,13.82,0,0,1-5.52,3.38A49.58,49.58,0,0,0,24.9,55.06H54.38c9.52-10.43,16-30.65,16-53.89Z" fill="none" stroke="#300" stroke-miterlimit="10" stroke-width="0.5"/>
  <path d="M12,3.86c0,3.6.17,7.11.5,10.51A13.77,13.77,0,0,1,22,18.44l0,19.51a13.87,13.87,0,0,1-3.08,2.32,44.35,44.35,0,0,0,7.52,12.08H52.9C61.47,43,67.28,24.77,67.28,3.86Z" fill="none" stroke="#000" stroke-miterlimit="10" stroke-width="0.5"/>
</svg>
